<svg width="250" height="250" viewBox="0 0 250 250" fill="none" xmlns="http://www.w3.org/2000/svg">
<path d="M122.119 0.0439717C70.8057 1.58206 31.25 46.3477 31.25 97.6807V226.548C31.25 233.511 39.6631 236.992 44.585 232.07L56.7529 223.022C60.0049 220.606 64.5654 221.074 67.2559 224.102L88.2275 247.71C91.2793 250.762 96.2256 250.762 99.2773 247.71L119.16 225.322C122.271 221.821 127.734 221.821 130.84 225.322L150.723 247.71C153.774 250.762 158.721 250.762 161.772 247.71L182.744 224.102C185.435 221.074 189.995 220.601 193.247 223.022L205.415 232.07C210.337 236.992 218.75 233.506 218.75 226.548V93.75C218.75 41.0156 175.21 -1.54783 122.119 0.0439717ZM93.75 109.375C85.1221 109.375 78.125 102.378 78.125 93.75C78.125 85.1221 85.1221 78.125 93.75 78.125C102.378 78.125 109.375 85.1221 109.375 93.75C109.375 102.378 102.378 109.375 93.75 109.375ZM156.25 109.375C147.622 109.375 140.625 102.378 140.625 93.75C140.625 85.1221 147.622 78.125 156.25 78.125C164.878 78.125 171.875 85.1221 171.875 93.75C171.875 102.378 164.878 109.375 156.25 109.375Z" fill="black"/>
</svg>
