<svg width="250" height="250" viewBox="0 0 250 250" fill="none" xmlns="http://www.w3.org/2000/svg">
<path d="M36.1328 101.562H31.25C29.178 101.562 27.1909 102.386 25.7257 103.851C24.2606 105.316 23.4375 107.303 23.4375 109.375V117.188C23.4375 119.26 24.2606 121.247 25.7257 122.712C27.1909 124.177 29.178 125 31.25 125H39.0332C38.9652 146.071 36.3519 167.056 31.25 187.5H93.75C88.6481 167.056 86.0348 146.071 85.9668 125H93.75C95.822 125 97.8091 124.177 99.2743 122.712C100.739 121.247 101.562 119.26 101.562 117.188V109.375C101.562 107.303 100.739 105.316 99.2743 103.851C97.8091 102.386 95.822 101.562 93.75 101.562H88.8672L105.415 57.4316C105.859 56.2489 106.009 54.9762 105.853 53.7226C105.697 52.469 105.239 51.272 104.519 50.2341C103.799 49.1962 102.838 48.3483 101.718 47.7633C100.599 47.1783 99.3541 46.8735 98.0908 46.875H70.3125V31.25H82.0312C83.0673 31.25 84.0608 30.8384 84.7934 30.1059C85.526 29.3733 85.9375 28.3798 85.9375 27.3438V19.5312C85.9375 18.4952 85.526 17.5017 84.7934 16.7691C84.0608 16.0366 83.0673 15.625 82.0312 15.625H70.3125V3.90625C70.3125 2.87025 69.901 1.87668 69.1684 1.14411C68.4358 0.41155 67.4423 0 66.4062 0L58.5938 0C57.5577 0 56.5642 0.41155 55.8316 1.14411C55.0991 1.87668 54.6875 2.87025 54.6875 3.90625V15.625H42.9688C41.9327 15.625 40.9392 16.0366 40.2066 16.7691C39.4741 17.5017 39.0625 18.4952 39.0625 19.5312V27.3438C39.0625 28.3798 39.4741 29.3733 40.2066 30.1059C40.9392 30.8384 41.9327 31.25 42.9688 31.25H54.6875V46.875H26.8994C25.6362 46.8735 24.3914 47.1783 23.2718 47.7633C22.1522 48.3483 21.1911 49.1962 20.471 50.2341C19.7509 51.272 19.2932 52.469 19.1372 53.7226C18.9812 54.9762 19.1315 56.2489 19.5752 57.4316L36.1328 101.562ZM120.684 224.404L109.375 218.75V210.938C109.375 208.865 108.552 206.878 107.087 205.413C105.622 203.948 103.635 203.125 101.562 203.125H23.4375C21.3655 203.125 19.3784 203.948 17.9132 205.413C16.4481 206.878 15.625 208.865 15.625 210.938V218.75L4.32129 224.404C3.02316 225.053 1.93127 226.05 1.16802 227.284C0.404773 228.518 0.0003213 229.941 0 231.392L0 242.188C0 244.26 0.8231 246.247 2.28823 247.712C3.75336 249.177 5.7405 250 7.8125 250H117.188C119.26 250 121.247 249.177 122.712 247.712C124.177 246.247 125 244.26 125 242.188V231.392C125 229.941 124.596 228.519 123.834 227.285C123.072 226.051 121.981 225.053 120.684 224.404ZM165.981 147.363L164.375 187.5H226.25L224.644 147.358L236.655 137.207C238.391 135.739 239.785 133.909 240.74 131.846C241.696 129.783 242.19 127.537 242.188 125.264V96.6797C242.187 95.9027 241.879 95.1575 241.329 94.6081C240.78 94.0587 240.035 93.75 239.258 93.75H226.377C225.6 93.75 224.855 94.0587 224.305 94.6081C223.756 95.1575 223.447 95.9027 223.447 96.6797V109.375H211.382V96.6797C211.382 95.9027 211.073 95.1575 210.524 94.6081C209.974 94.0587 209.229 93.75 208.452 93.75H182.178C181.401 93.75 180.656 94.0587 180.106 94.6081C179.557 95.1575 179.248 95.9027 179.248 96.6797V109.375H167.183V96.6797C167.183 95.9027 166.874 95.1575 166.325 94.6081C165.775 94.0587 165.03 93.75 164.253 93.75H151.367C150.59 93.75 149.845 94.0587 149.296 94.6081C148.746 95.1575 148.438 95.9027 148.438 96.6797V125.293C148.441 127.563 148.94 129.804 149.897 131.862C150.855 133.919 152.25 135.743 153.984 137.207L165.981 147.363ZM187.5 148.438C187.5 146.365 188.323 144.378 189.788 142.913C191.253 141.448 193.24 140.625 195.312 140.625C197.385 140.625 199.372 141.448 200.837 142.913C202.302 144.378 203.125 146.365 203.125 148.438V164.062H187.5V148.438ZM245.684 224.404L234.375 218.75V210.938C234.375 208.865 233.552 206.878 232.087 205.413C230.622 203.948 228.635 203.125 226.562 203.125H164.062C161.99 203.125 160.003 203.948 158.538 205.413C157.073 206.878 156.25 208.865 156.25 210.938V218.75L144.946 224.404C143.648 225.053 142.556 226.05 141.793 227.284C141.03 228.518 140.625 229.941 140.625 231.392V242.188C140.625 244.26 141.448 246.247 142.913 247.712C144.378 249.177 146.365 250 148.438 250H242.188C244.26 250 246.247 249.177 247.712 247.712C249.177 246.247 250 244.26 250 242.188V231.392C250 229.941 249.596 228.519 248.834 227.285C248.072 226.051 246.981 225.053 245.684 224.404Z" fill="black"/>
</svg>
