<svg width="250" height="250" viewBox="0 0 250 250" fill="none" xmlns="http://www.w3.org/2000/svg">
<path d="M247.916 53.2715C246.823 48.8623 241.305 47.3682 238.092 50.5811L201.783 86.8897L168.639 81.3672L163.116 48.2227L199.425 11.9141C202.657 8.68165 201.1 3.17384 196.661 2.07032C173.527 -3.6621 148.053 2.51466 129.972 20.5908C110.616 39.9463 105.289 68.0029 113.346 92.4658L9.15161 196.66C-3.05054 208.862 -3.05054 228.647 9.15161 240.85C21.3538 253.052 41.1389 253.052 53.3411 240.85L157.448 136.743C181.92 144.902 209.923 139.517 229.406 120.034C247.506 101.934 253.673 76.4209 247.916 53.2715ZM31.2512 230.469C24.7815 230.469 19.5325 225.22 19.5325 218.75C19.5325 212.275 24.7815 207.031 31.2512 207.031C37.7209 207.031 42.97 212.275 42.97 218.75C42.97 225.22 37.7209 230.469 31.2512 230.469Z" fill="black"/>
</svg>
