<svg width="480" height="150" viewBox="0 0 480 150" fill="none" xmlns="http://www.w3.org/2000/svg">
<path d="M103.125 53.9062C99.2285 53.9062 96.0938 57.041 96.0938 60.9375C96.0938 64.834 99.2285 67.9688 103.125 67.9688C107.021 67.9688 110.156 64.834 110.156 60.9375C110.156 57.041 107.021 53.9062 103.125 53.9062ZM75 2.34375C34.8633 2.34375 2.34375 34.8633 2.34375 75C2.34375 106.143 21.9727 132.627 49.5117 142.969C47.8711 139.395 46.875 135.439 46.875 131.25V117.92C39.6387 113.174 34.1309 106.758 32.8711 99.2285C32.2852 95.7715 35.5957 92.9297 38.9355 93.9844C47.7832 96.8262 60.9375 98.4375 75 98.4375C89.0625 98.4375 102.217 96.8262 111.064 93.9844C114.434 92.9004 117.686 95.7715 117.129 99.2285C115.869 106.758 110.361 113.174 103.125 117.92V131.25C103.125 135.439 102.129 139.395 100.488 142.969C128.027 132.627 147.656 106.143 147.656 75C147.656 34.8633 115.137 2.34375 75 2.34375ZM58.5938 68.2617L55.8105 65.7715C51.4746 61.9043 42.2754 61.9043 37.9395 65.7715L35.1562 68.2617C32.666 70.4297 28.8281 68.3496 29.3555 65.0977C30.5273 57.7148 39.375 52.7637 46.9043 52.7637C54.4336 52.7637 63.2812 57.7148 64.4531 65.0977C64.9219 68.3496 61.0547 70.4297 58.5938 68.2617ZM103.125 79.6875C92.7832 79.6875 84.375 71.2793 84.375 60.9375C84.375 50.5957 92.7832 42.1875 103.125 42.1875C113.467 42.1875 121.875 50.5957 121.875 60.9375C121.875 71.2793 113.467 79.6875 103.125 79.6875ZM88.2129 109.746C83.9941 107.842 79.1016 110.391 78.0762 114.902L77.5488 117.188C76.9336 119.883 73.0957 119.883 72.4805 117.188L71.9531 114.902C70.9277 110.391 66.0352 107.842 61.8164 109.746C61.5527 109.863 61.9043 109.687 56.2793 112.5V130.957C56.2793 141.27 64.4824 149.854 74.7656 149.971C85.2246 150.117 93.7793 141.65 93.7793 131.221V112.471C88.0664 109.658 88.4473 109.863 88.2129 109.746Z" fill="black"/>
<path d="M465.938 75H344.062C340.333 75 336.756 76.4816 334.119 79.1188C331.482 81.756 330 85.3329 330 89.0625C330 92.7921 331.482 96.369 334.119 99.0062C336.756 101.643 340.333 103.125 344.062 103.125H465.938C469.667 103.125 473.244 101.643 475.881 99.0062C478.518 96.369 480 92.7921 480 89.0625C480 85.3329 478.518 81.756 475.881 79.1188C473.244 76.4816 469.667 75 465.938 75ZM470.625 112.5H339.375C338.132 112.5 336.94 112.994 336.06 113.873C335.181 114.752 334.688 115.944 334.688 117.188V121.875C334.688 126.848 336.663 131.617 340.179 135.133C343.696 138.65 348.465 140.625 353.438 140.625H456.562C461.535 140.625 466.304 138.65 469.821 135.133C473.337 131.617 475.312 126.848 475.312 121.875V117.188C475.312 115.944 474.819 114.752 473.94 113.873C473.06 112.994 471.868 112.5 470.625 112.5ZM347.18 65.625H462.82C472.948 65.625 478.822 52.7637 473.021 43.3945C461.25 24.375 435.337 9.4043 405 9.375C374.666 9.4043 348.75 24.375 336.979 43.3916C331.172 52.7607 337.052 65.625 347.18 65.625ZM442.5 32.8125C443.427 32.8125 444.333 33.0874 445.104 33.6025C445.875 34.1176 446.476 34.8496 446.831 35.7062C447.185 36.5627 447.278 37.5052 447.097 38.4145C446.917 39.3238 446.47 40.159 445.815 40.8146C445.159 41.4701 444.324 41.9166 443.414 42.0974C442.505 42.2783 441.563 42.1855 440.706 41.8307C439.85 41.4759 439.118 40.8751 438.602 40.1042C438.087 39.3334 437.812 38.4271 437.812 37.5C437.812 36.2568 438.306 35.0645 439.185 34.1854C440.065 33.3064 441.257 32.8125 442.5 32.8125ZM405 23.4375C405.927 23.4375 406.833 23.7124 407.604 24.2275C408.375 24.7426 408.976 25.4746 409.331 26.3312C409.685 27.1877 409.778 28.1302 409.597 29.0395C409.417 29.9488 408.97 30.784 408.315 31.4396C407.659 32.0951 406.824 32.5416 405.914 32.7224C405.005 32.9033 404.063 32.8105 403.206 32.4557C402.35 32.1009 401.618 31.5001 401.102 30.7292C400.587 29.9584 400.312 29.0521 400.312 28.125C400.312 26.8818 400.806 25.6895 401.685 24.8104C402.565 23.9314 403.757 23.4375 405 23.4375ZM367.5 32.8125C368.427 32.8125 369.333 33.0874 370.104 33.6025C370.875 34.1176 371.476 34.8496 371.831 35.7062C372.185 36.5627 372.278 37.5052 372.097 38.4145C371.917 39.3238 371.47 40.159 370.815 40.8146C370.159 41.4701 369.324 41.9166 368.414 42.0974C367.505 42.2783 366.563 42.1855 365.706 41.8307C364.85 41.4759 364.118 40.8751 363.602 40.1042C363.087 39.3334 362.812 38.4271 362.812 37.5C362.812 36.2568 363.306 35.0645 364.185 34.1854C365.065 33.3064 366.257 32.8125 367.5 32.8125Z" fill="black"/>
<path d="M313.779 58.8385L307.886 52.9452C306.258 51.3176 303.62 51.3176 301.992 52.9452L299.047 55.8905L291.521 48.3645C292.987 42.815 291.615 36.6718 287.263 32.3202L275.479 20.5364C259.208 4.26554 232.826 4.26554 216.552 20.5364L240.123 32.3202V37.203C240.123 41.6223 241.878 45.8619 245.005 48.9869L257.802 61.7838C262.154 66.1353 268.297 67.5077 273.846 66.0416L281.373 73.5676L278.427 76.5129C276.8 78.1405 276.8 80.7786 278.427 82.4062L284.32 88.2994C285.948 89.927 288.586 89.927 290.214 88.2994L313.784 64.7291C315.406 63.1041 315.406 60.4661 313.779 58.8385ZM239.112 54.8801C238.149 53.9166 237.331 52.8515 236.547 51.7681L170.115 113.792C163.456 120.01 163.276 130.508 169.716 136.95C176.156 143.393 186.656 143.213 192.875 136.552L254.888 70.1275C253.857 69.3697 252.831 68.5989 251.909 67.677L239.112 54.8801Z" fill="black"/>
</svg>
