<svg width="250" height="250" viewBox="0 0 250 250" fill="none" xmlns="http://www.w3.org/2000/svg">
<path d="M249.918 108.498C248.542 82.2093 224.948 62.5001 198.624 62.5001H194.557C171.632 62.5001 149.31 55.4471 130.434 42.4307C112.209 29.8612 88.75 24.3664 63.9366 29.9741C56.1198 31.7362 -0.0347061 47.8473 1.60956e-05 111.111C0.0173772 141.905 16.7882 168.75 41.6623 183.164V215.278C41.6623 219.115 44.77 222.222 48.6068 222.222H55.5512C59.388 222.222 62.4957 219.115 62.4957 215.278V191.728C69.1623 193.446 76.1241 194.445 83.329 194.445C85.6901 194.445 87.9644 194.128 90.2735 193.932V215.278C90.2735 219.115 93.3811 222.222 97.2179 222.222H104.162C107.999 222.222 111.107 219.115 111.107 215.278V189.484C117.287 187.287 123.207 184.54 128.615 181.016C148.468 168.077 170.946 159.722 194.644 159.722C205.703 159.722 201.593 159.588 204.648 159.384L236.944 218.603C238.186 220.872 240.547 222.222 243.043 222.222C243.611 222.222 244.188 222.153 244.757 222.005C247.834 221.224 249.987 218.451 249.987 215.278C249.987 215.278 250.048 111.007 249.918 108.498ZM201.376 121.528C195.625 121.528 190.959 116.862 190.959 111.111C190.959 105.356 195.625 100.695 201.376 100.695C207.127 100.695 211.793 105.356 211.793 111.111C211.793 116.862 207.127 121.528 201.376 121.528ZM236.098 188.043L218.798 156.324C225.36 153.794 231.267 149.987 236.098 145.048V188.043Z" fill="black"/>
</svg>
