<svg width="250" height="250" viewBox="0 0 250 250" fill="none" xmlns="http://www.w3.org/2000/svg">
<path d="M62.5 125C50.1387 125 38.055 128.666 27.7769 135.534C17.4988 142.401 9.48803 152.162 4.75756 163.583C0.0270801 175.003 -1.21063 187.57 1.20095 199.694C3.61252 211.817 9.56507 222.954 18.3059 231.695C27.0466 240.435 38.1831 246.388 50.3069 248.8C62.4307 251.211 74.9974 249.973 86.4177 245.243C97.8381 240.512 107.599 232.502 114.467 222.224C121.334 211.946 125 199.862 125 187.5C125 170.924 118.415 155.027 106.694 143.306C94.9732 131.585 79.0761 125 62.5 125ZM247.559 98.2134L195.347 8.93116C193.737 6.21037 191.447 3.95584 188.701 2.38974C185.955 0.823633 182.849 0 179.688 0C176.526 0 173.42 0.823633 170.674 2.38974C167.928 3.95584 165.638 6.21037 164.028 8.93116L111.816 98.2134C104.863 110.118 113.564 125 127.485 125H231.89C245.811 125 254.512 110.118 247.559 98.2134ZM234.375 140.625H156.25C152.106 140.625 148.132 142.272 145.201 145.202C142.271 148.132 140.625 152.106 140.625 156.25V234.375C140.625 238.519 142.271 242.494 145.201 245.424C148.132 248.354 152.106 250 156.25 250H234.375C238.519 250 242.493 248.354 245.424 245.424C248.354 242.494 250 238.519 250 234.375V156.25C250 152.106 248.354 148.132 245.424 145.202C242.493 142.272 238.519 140.625 234.375 140.625Z" fill="black"/>
</svg>
